<?xml version="1.0" encoding="utf-8"?>
<!-- Generator: Adobe Illustrator 25.2.2, SVG Export Plug-In . SVG Version: 6.00 Build 0)  -->
<svg version="1.1" id="Calque_1" xmlns="http://www.w3.org/2000/svg" xmlns:xlink="http://www.w3.org/1999/xlink" x="0px" y="0px"
	 viewBox="0 0 200 61.9" style="enable-background:new 0 0 200 61.9;" xml:space="preserve">
<style type="text/css">
	.st0{fill:#9F2348;}
	.st1{fill:#F8F6EE;}
	.st2{fill:#868686;}
	.st3{fill:none;stroke:#868686;stroke-width:5.6342;stroke-miterlimit:10;}
</style>
<rect class="st0" width="110.7" height="61.9"/>
<rect x="110.7" class="st1" width="89.3" height="61.9"/>
<path class="st2" d="M101.1,19.1c1,0,1.5,1.3,1.5,2.8c0,2.2-1.3,4.9-4.6,4.9C97.4,23.5,99.5,19.1,101.1,19.1z M108.2,22.6
	c0-3.4-4.7-4.1-7-4.1c-4.2,0-9.8,2.5-9.8,7.2c0,4.8,3.8,6.2,7.9,6.2c5.5,0,8.9-1.7,11.2-3.3V28c-2.6,1.6-5.2,2.3-7.5,2.3
	c-2.9,0-4.3-1.3-4.8-3.1C102.5,27.6,108.2,26.2,108.2,22.6z M89.6,22.5c-0.7,1.7-2.2,4.2-3.7,6.2l-5.7-9.9c-2.3-0.8-6.1,0.5-7.3,1.4
	L79.7,32c1.9-0.6,2.9-0.6,4.9-0.6c1.9-2.5,6.1-8.1,6.1-11.1c0-1.5-1.1-2.8-2.6-2.8c-1.5,0-2.7,1.3-2.7,2.7c0,1.4,1.1,2.6,2.5,2.6
	C88.5,22.8,89.1,22.7,89.6,22.5z M63.4,28.3c-0.6,0.6-1.1,0.8-1.6,0.8c-1.5,0-2.6-2-2.6-4.3c0-4,1.7-5.6,4.2-5.7V28.3L63.4,28.3
	L63.4,28.3z M75.3,28c-1.1,0.8-2.2,1.4-3.4,1.4c-0.7,0-1.2-0.4-1.2-1.8v-8.5c-1.8-0.5-4.3-0.7-6-0.7c-8.1,0-11.6,3-11.6,7.2
	c0,3.9,2,6.2,5.4,6.2c2.5,0,4.1-1.4,5.2-3.2c0.4,1.4,1.3,3.2,4.1,3.2c2.6,0,5.3-1.1,7.5-3.3V28L75.3,28z M39.7,23
	c0-5.6,3.1-8.5,8-8.5c-1.4,0.2-2.4,1.3-2.4,2.6c0,1.5,1.2,2.7,2.7,2.7s2.7-1.2,2.7-2.7c0-0.9-1-3.8-7-3.8c-4.2,0-11.1,2.5-11.1,9.7
	c0,6.2,4.9,8.9,10.4,8.9c3.8,0,7.8-1.3,10.7-3.5v-0.5C44.9,33,39.7,29.6,39.7,23z"/>
<path class="st2" d="M132.3,29.9c-3.9,0.4-8.1-2.1-6.5-7.4C127,25.2,129.5,28,132.3,29.9z M139.2,32.4c2.9,0,4.9-1.7,6.2-4v-0.5
	c-1.6,1.7-4.9,1.1-8-0.5c1.3-1.1,2.8-2.6,4.2-4.5h-3.2c-0.1,2-0.7,3.3-1.5,4.3c-1.9-1-3.6-2.3-5.1-3.8c-3-3.1-4.2-9.3-0.8-9.3
	c3.5,0,2.5,6.9,0.8,8.5l0.3,0.3c6.4-2.3,6.5-9.3-1.1-9.3c-3,0-6.4,1.6-6.4,4.7c0,1.2,0.3,2.5,0.8,3.8c-3,1.2-4.9,3.4-4.9,5.4
	c0,2.9,2.8,4.6,6,4.6c1.9,0,4.5-0.4,6.2-1.6C134.9,31.6,137.1,32.4,139.2,32.4z"/>
<path class="st2" d="M184.1,39.7c-0.7-0.5-1.6-0.8-2.6-0.8c-1.8,0-3.2,0.9-3.2,2.4c0,3.3,5.7,2.1,5.7,5.2c0,1.4-1.2,2.3-3.1,2.3
	c-0.9,0-2-0.3-3.1-1l-0.3,0.5c1.1,0.8,2.2,1.1,3.4,1.1c2.2,0,3.7-1.1,3.7-3c0-3.6-5.7-2.4-5.7-5.2c0-1.1,1.1-1.8,2.6-1.8
	c1,0,1.9,0.4,2.5,0.8L184.1,39.7z M171,49.3h6.6l0.2-0.6h-6.1v-4.8h3.6v-0.6h-3.6v-3.7h4.7V39H171L171,49.3L171,49.3z M163.7,45
	l-3.4-6.1h-0.3l-1.8,10.3h0.7l1.5-8.8l3.3,5.8l3.2-5.7l1.6,8.8h0.7L167.4,39h-0.3L163.7,45z M155.9,49.3h0.7V39h-0.7V49.3z
	 M153.6,39.7c-0.7-0.5-1.6-0.8-2.6-0.8c-1.8,0-3.2,0.9-3.2,2.4c0,3.3,5.7,2.1,5.7,5.2c0,1.4-1.2,2.3-3.1,2.3c-0.9,0-2-0.3-3.1-1
	l-0.3,0.5c1.1,0.8,2.2,1.1,3.4,1.1c2.2,0,3.7-1.1,3.7-3c0-3.6-5.7-2.4-5.7-5.2c0-1.1,1.1-1.8,2.6-1.8c1,0,1.9,0.4,2.5,0.8
	L153.6,39.7z M140.5,49.3h6.6l0.2-0.6h-6.1v-4.8h3.6v-0.6h-3.6v-3.7h4.7V39h-5.4L140.5,49.3L140.5,49.3z M142.7,37.9h0.5l0.9-1.7
	l-0.7-0.2L142.7,37.9z M133.6,49.3h5.2l0.2-0.6h-4.8V39h-0.7V49.3L133.6,49.3z M126.7,49.3h5.3l0.2-0.6h-4.8V39h-0.7L126.7,49.3
	L126.7,49.3z M123.7,49.3h0.7V39h-0.7V49.3z M116.4,45l-3.4-6.1h-0.3L111,49.3h0.7l1.5-8.8l3.3,5.8l3.2-5.7l1.6,8.8h0.7L120.1,39
	h-0.3L116.4,45z"/>
<line class="st3" x1="33.4" y1="43.8" x2="108.5" y2="43.8"/>
</svg>
